<mxfile modified="2023-04-07T16:23:43.807Z" host="app.diagrams.net" agent="Mozilla/5.0 (Windows NT 10.0; Win64; x64) AppleWebKit/537.36 (KHTML, like Gecko) Chrome/111.0.0.0 Safari/537.36" etag="TrIQB_Qk86gidSHuEG1T" version="21.1.5" type="github">
  <diagram id="d1ab7348-05c3-a1e3-ca4d-12c340fd6b49" name="Page-1">
    <mxGraphModel dx="3206" dy="1557" grid="1" gridSize="10" guides="1" tooltips="1" connect="1" arrows="1" fold="1" page="1" pageScale="1" pageWidth="1169" pageHeight="827" background="none" math="0" shadow="0">
      <root>
        <mxCell id="0" />
        <mxCell id="1" parent="0" />
        <mxCell id="2" value="&lt;b&gt;Google &lt;/b&gt;Cloud Platform" style="fillColor=#F6F6F6;strokeColor=none;shadow=0;gradientColor=none;fontSize=14;align=left;spacing=10;fontColor=#717171;9E9E9E;verticalAlign=top;spacingTop=-4;fontStyle=0;spacingLeft=40;html=1;" parent="1" vertex="1">
          <mxGeometry x="228.5" y="-20" width="640" height="670" as="geometry" />
        </mxCell>
        <mxCell id="3" value="" style="shape=mxgraph.gcp2.google_cloud_platform;fillColor=#F6F6F6;strokeColor=none;shadow=0;gradientColor=none;" parent="2" vertex="1">
          <mxGeometry width="23" height="20" relative="1" as="geometry">
            <mxPoint x="20" y="10" as="offset" />
          </mxGeometry>
        </mxCell>
        <mxCell id="406" style="edgeStyle=orthogonalEdgeStyle;rounded=0;html=1;dashed=0;labelBackgroundColor=none;startArrow=none;startFill=0;startSize=4;endArrow=blockThin;endFill=1;endSize=4;strokeColor=#4284F3;strokeWidth=2;fontSize=12;" parent="1" source="371" target="384" edge="1">
          <mxGeometry relative="1" as="geometry">
            <Array as="points">
              <mxPoint x="648.5" y="550" />
              <mxPoint x="648.5" y="440" />
            </Array>
          </mxGeometry>
        </mxCell>
        <mxCell id="407" style="edgeStyle=orthogonalEdgeStyle;rounded=0;html=1;dashed=0;labelBackgroundColor=none;startArrow=none;startFill=0;startSize=4;endArrow=blockThin;endFill=1;endSize=4;strokeColor=#4284F3;strokeWidth=2;fontSize=12;" parent="1" source="371" target="380" edge="1">
          <mxGeometry relative="1" as="geometry">
            <Array as="points">
              <mxPoint x="648.5" y="550" />
              <mxPoint x="648.5" y="235" />
            </Array>
          </mxGeometry>
        </mxCell>
        <mxCell id="371" value="Streaming" style="rounded=1;absoluteArcSize=1;arcSize=2;html=1;strokeColor=#4284F3;gradientColor=none;shadow=0;dashed=1;fontSize=12;fontColor=#9E9E9E;align=left;verticalAlign=top;spacing=10;spacingTop=-4;fillColor=none;dashPattern=1 2;strokeWidth=2;" parent="1" vertex="1">
          <mxGeometry x="428.5" y="465" width="170" height="170" as="geometry" />
        </mxCell>
        <mxCell id="398" style="edgeStyle=orthogonalEdgeStyle;rounded=0;html=1;dashed=0;labelBackgroundColor=none;startArrow=none;startFill=0;startSize=4;endArrow=blockThin;endFill=1;endSize=4;strokeColor=#4284F3;strokeWidth=2;fontSize=12;" parent="1" source="359" target="361" edge="1">
          <mxGeometry relative="1" as="geometry">
            <Array as="points">
              <mxPoint x="328.5" y="153" />
              <mxPoint x="328.5" y="153" />
            </Array>
          </mxGeometry>
        </mxCell>
        <mxCell id="359" value="" style="shape=mxgraph.gcp2.doubleRect;strokeColor=#dddddd;fillColor=#ffffff;shadow=1;strokeWidth=1;fontSize=12;fontColor=#9E9E9E;align=center;html=1;" parent="1" vertex="1">
          <mxGeometry x="248.5" y="59" width="160" height="68" as="geometry" />
        </mxCell>
        <mxCell id="360" value="&lt;font color=&quot;#000000&quot;&gt;Cloud Apps&lt;/font&gt;&lt;br&gt;Compute Engine" style="dashed=0;connectable=0;html=1;fillColor=#5184F3;strokeColor=none;shape=mxgraph.gcp2.hexIcon;prIcon=compute_engine;part=1;labelPosition=right;verticalLabelPosition=middle;align=left;verticalAlign=middle;spacingLeft=5;fontColor=#999999;fontSize=12;" parent="359" vertex="1">
          <mxGeometry y="0.5" width="44" height="39" relative="1" as="geometry">
            <mxPoint x="5" y="-19.5" as="offset" />
          </mxGeometry>
        </mxCell>
        <mxCell id="399" style="edgeStyle=orthogonalEdgeStyle;rounded=0;html=1;dashed=0;labelBackgroundColor=none;startArrow=none;startFill=0;startSize=4;endArrow=blockThin;endFill=1;endSize=4;strokeColor=#4284F3;strokeWidth=2;fontSize=12;" parent="1" source="361" target="363" edge="1">
          <mxGeometry relative="1" as="geometry" />
        </mxCell>
        <mxCell id="361" value="" style="strokeColor=#dddddd;fillColor=#ffffff;shadow=1;strokeWidth=1;rounded=1;absoluteArcSize=1;arcSize=2;fontSize=12;fontColor=#9E9E9E;align=center;html=1;" parent="1" vertex="1">
          <mxGeometry x="248.5" y="158" width="150" height="70" as="geometry" />
        </mxCell>
        <mxCell id="362" value="&lt;font color=&quot;#000000&quot;&gt;Streaming&lt;/font&gt;&lt;br&gt;Cloud Pub/Sub&lt;hr&gt;&lt;font style=&quot;font-size: 11px&quot;&gt;Transactions&lt;/font&gt;" style="dashed=0;connectable=0;html=1;fillColor=#5184F3;strokeColor=none;shape=mxgraph.gcp2.hexIcon;prIcon=cloud_pubsub;part=1;labelPosition=right;verticalLabelPosition=middle;align=left;verticalAlign=top;spacingLeft=5;fontColor=#999999;fontSize=12;spacingTop=-8;" parent="361" vertex="1">
          <mxGeometry width="44" height="39" relative="1" as="geometry">
            <mxPoint x="5" y="7" as="offset" />
          </mxGeometry>
        </mxCell>
        <mxCell id="400" style="edgeStyle=orthogonalEdgeStyle;rounded=0;html=1;exitX=0.5;exitY=1;dashed=0;labelBackgroundColor=none;startArrow=none;startFill=0;startSize=4;endArrow=blockThin;endFill=1;endSize=4;strokeColor=#4284F3;strokeWidth=2;fontSize=12;entryX=0.5;entryY=0;entryDx=0;entryDy=0;" parent="1" source="363" target="369" edge="1">
          <mxGeometry relative="1" as="geometry">
            <mxPoint x="514.5" y="273" as="targetPoint" />
          </mxGeometry>
        </mxCell>
        <mxCell id="405" style="edgeStyle=orthogonalEdgeStyle;rounded=0;html=1;dashed=0;labelBackgroundColor=none;startArrow=none;startFill=0;startSize=4;endArrow=blockThin;endFill=1;endSize=4;strokeColor=#4284F3;strokeWidth=2;fontSize=12;" parent="1" source="363" target="371" edge="1">
          <mxGeometry relative="1" as="geometry">
            <Array as="points">
              <mxPoint x="618.5" y="255" />
              <mxPoint x="618.5" y="435" />
              <mxPoint x="528.5" y="435" />
            </Array>
          </mxGeometry>
        </mxCell>
        <mxCell id="363" value="" style="strokeColor=#dddddd;fillColor=#ffffff;shadow=1;strokeWidth=1;rounded=1;absoluteArcSize=1;arcSize=2;fontSize=12;fontColor=#9E9E9E;align=center;html=1;" parent="1" vertex="1">
          <mxGeometry x="430.5" y="158" width="168" height="70" as="geometry" />
        </mxCell>
        <mxCell id="364" value="&lt;font color=&quot;#000000&quot;&gt;Processing&lt;/font&gt;&lt;br&gt;Cloud Dataflow&lt;hr&gt;&lt;font style=&quot;font-size: 11px&quot;&gt;Transaction Streams&lt;/font&gt;" style="dashed=0;connectable=0;html=1;fillColor=#5184F3;strokeColor=none;shape=mxgraph.gcp2.hexIcon;prIcon=cloud_dataflow;part=1;labelPosition=right;verticalLabelPosition=middle;align=left;verticalAlign=top;spacingLeft=5;fontColor=#999999;fontSize=12;spacingTop=-8;" parent="363" vertex="1">
          <mxGeometry width="44" height="39" relative="1" as="geometry">
            <mxPoint x="5" y="7" as="offset" />
          </mxGeometry>
        </mxCell>
        <mxCell id="403" style="edgeStyle=orthogonalEdgeStyle;rounded=0;html=1;dashed=0;labelBackgroundColor=none;startArrow=none;startFill=0;startSize=4;endArrow=blockThin;endFill=1;endSize=4;strokeColor=#4284F3;strokeWidth=2;fontSize=12;" parent="1" source="365" target="371" edge="1">
          <mxGeometry relative="1" as="geometry">
            <Array as="points">
              <mxPoint x="498.5" y="435" />
            </Array>
          </mxGeometry>
        </mxCell>
        <mxCell id="404" style="edgeStyle=orthogonalEdgeStyle;rounded=0;html=1;dashed=0;labelBackgroundColor=none;startArrow=none;startFill=0;startSize=4;endArrow=blockThin;endFill=1;endSize=4;strokeColor=#4284F3;strokeWidth=2;fontSize=12;" parent="1" source="365" target="369" edge="1">
          <mxGeometry relative="1" as="geometry">
            <Array as="points">
              <mxPoint x="498.5" y="435" />
            </Array>
          </mxGeometry>
        </mxCell>
        <mxCell id="365" value="" style="strokeColor=#dddddd;fillColor=#ffffff;shadow=1;strokeWidth=1;rounded=1;absoluteArcSize=1;arcSize=2;fontSize=12;fontColor=#9E9E9E;align=center;html=1;" parent="1" vertex="1">
          <mxGeometry x="248.5" y="405" width="150" height="70" as="geometry" />
        </mxCell>
        <mxCell id="366" value="&lt;font color=&quot;#000000&quot;&gt;ETL&lt;/font&gt;&lt;br&gt;Cloud Dataflow&lt;hr&gt;&lt;font style=&quot;font-size: 11px&quot;&gt;Transform Data&lt;/font&gt;" style="dashed=0;connectable=0;html=1;fillColor=#5184F3;strokeColor=none;shape=mxgraph.gcp2.hexIcon;prIcon=cloud_dataflow;part=1;labelPosition=right;verticalLabelPosition=middle;align=left;verticalAlign=top;spacingLeft=5;fontColor=#999999;fontSize=12;spacingTop=-8;" parent="365" vertex="1">
          <mxGeometry width="44" height="39" relative="1" as="geometry">
            <mxPoint x="5" y="7" as="offset" />
          </mxGeometry>
        </mxCell>
        <mxCell id="402" style="edgeStyle=orthogonalEdgeStyle;rounded=0;html=1;exitX=0.5;exitY=0;dashed=0;labelBackgroundColor=none;startArrow=none;startFill=0;startSize=4;endArrow=blockThin;endFill=1;endSize=4;strokeColor=#4284F3;strokeWidth=2;fontSize=12;" parent="1" source="367" target="365" edge="1">
          <mxGeometry relative="1" as="geometry" />
        </mxCell>
        <mxCell id="367" value="" style="strokeColor=#dddddd;fillColor=#ffffff;shadow=1;strokeWidth=1;rounded=1;absoluteArcSize=1;arcSize=2;fontSize=12;fontColor=#9E9E9E;align=center;html=1;" parent="1" vertex="1">
          <mxGeometry x="248.5" y="515" width="150" height="60" as="geometry" />
        </mxCell>
        <mxCell id="368" value="&lt;font color=&quot;#000000&quot;&gt;Cloud Data&lt;/font&gt;&lt;br&gt;Cloud Storage" style="dashed=0;connectable=0;html=1;fillColor=#5184F3;strokeColor=none;shape=mxgraph.gcp2.hexIcon;prIcon=cloud_storage;part=1;labelPosition=right;verticalLabelPosition=middle;align=left;verticalAlign=middle;spacingLeft=5;fontColor=#999999;fontSize=12;" parent="367" vertex="1">
          <mxGeometry y="0.5" width="44" height="39" relative="1" as="geometry">
            <mxPoint x="5" y="-19.5" as="offset" />
          </mxGeometry>
        </mxCell>
        <mxCell id="369" value="" style="strokeColor=#dddddd;fillColor=#ffffff;shadow=1;strokeWidth=1;rounded=1;absoluteArcSize=1;arcSize=2;fontSize=12;fontColor=#9E9E9E;align=center;html=1;" parent="1" vertex="1">
          <mxGeometry x="433" y="335" width="163" height="70" as="geometry" />
        </mxCell>
        <mxCell id="370" value="&lt;font color=&quot;#000000&quot;&gt;Processed Events&lt;/font&gt;&lt;br&gt;Cloud Bigtable&lt;hr&gt;&lt;font style=&quot;font-size: 11px&quot;&gt;Events Time Series&lt;/font&gt;" style="dashed=0;connectable=0;html=1;fillColor=#5184F3;strokeColor=none;shape=mxgraph.gcp2.hexIcon;prIcon=cloud_bigtable;part=1;labelPosition=right;verticalLabelPosition=middle;align=left;verticalAlign=top;spacingLeft=5;fontColor=#999999;fontSize=12;spacingTop=-8;" parent="369" vertex="1">
          <mxGeometry width="44" height="39" relative="1" as="geometry">
            <mxPoint x="5" y="7" as="offset" />
          </mxGeometry>
        </mxCell>
        <mxCell id="372" value="" style="strokeColor=#dddddd;fillColor=#ffffff;shadow=1;strokeWidth=1;rounded=1;absoluteArcSize=1;arcSize=2;fontSize=12;fontColor=#9E9E9E;align=center;html=1;" parent="1" vertex="1">
          <mxGeometry x="439.5" y="495" width="150" height="60" as="geometry" />
        </mxCell>
        <mxCell id="373" value="&lt;font color=&quot;#000000&quot;&gt;Rules Engine&lt;/font&gt;&lt;br&gt;Cloud Dataflow" style="dashed=0;connectable=0;html=1;fillColor=#5184F3;strokeColor=none;shape=mxgraph.gcp2.hexIcon;prIcon=cloud_dataflow;part=1;labelPosition=right;verticalLabelPosition=middle;align=left;verticalAlign=middle;spacingLeft=5;fontColor=#999999;fontSize=12;" parent="372" vertex="1">
          <mxGeometry y="0.5" width="44" height="39" relative="1" as="geometry">
            <mxPoint x="5" y="-19.5" as="offset" />
          </mxGeometry>
        </mxCell>
        <mxCell id="374" value="" style="strokeColor=#dddddd;fillColor=#ffffff;shadow=1;strokeWidth=1;rounded=1;absoluteArcSize=1;arcSize=2;fontSize=12;fontColor=#9E9E9E;align=center;html=1;" parent="1" vertex="1">
          <mxGeometry x="439.5" y="565" width="150" height="60" as="geometry" />
        </mxCell>
        <mxCell id="375" value="&lt;font color=&quot;#000000&quot;&gt;Rules Engine&lt;/font&gt;&lt;br&gt;Cloud Dataproc" style="dashed=0;connectable=0;html=1;fillColor=#5184F3;strokeColor=none;shape=mxgraph.gcp2.hexIcon;prIcon=cloud_dataproc;part=1;labelPosition=right;verticalLabelPosition=middle;align=left;verticalAlign=middle;spacingLeft=5;fontColor=#999999;fontSize=12;" parent="374" vertex="1">
          <mxGeometry y="0.5" width="44" height="39" relative="1" as="geometry">
            <mxPoint x="5" y="-19.5" as="offset" />
          </mxGeometry>
        </mxCell>
        <mxCell id="408" style="edgeStyle=orthogonalEdgeStyle;rounded=0;html=1;dashed=0;labelBackgroundColor=none;startArrow=none;startFill=0;startSize=4;endArrow=blockThin;endFill=1;endSize=4;strokeColor=#4284F3;strokeWidth=2;fontSize=12;" parent="1" source="376" target="388" edge="1">
          <mxGeometry relative="1" as="geometry">
            <Array as="points">
              <mxPoint x="888.5" y="83" />
              <mxPoint x="888.5" y="83" />
            </Array>
          </mxGeometry>
        </mxCell>
        <mxCell id="376" value="" style="strokeColor=#dddddd;fillColor=#ffffff;shadow=1;strokeWidth=1;rounded=1;absoluteArcSize=1;arcSize=2;fontSize=12;fontColor=#9E9E9E;align=center;html=1;" parent="1" vertex="1">
          <mxGeometry x="680.5" y="53" width="158" height="60" as="geometry" />
        </mxCell>
        <mxCell id="377" value="&lt;font color=&quot;#000000&quot;&gt;Push to Devices&lt;/font&gt;&lt;br&gt;App Engine" style="dashed=0;connectable=0;html=1;fillColor=#5184F3;strokeColor=none;shape=mxgraph.gcp2.hexIcon;prIcon=app_engine;part=1;labelPosition=right;verticalLabelPosition=middle;align=left;verticalAlign=middle;spacingLeft=5;fontColor=#999999;fontSize=12;" parent="376" vertex="1">
          <mxGeometry y="0.5" width="44" height="39" relative="1" as="geometry">
            <mxPoint x="5" y="-19.5" as="offset" />
          </mxGeometry>
        </mxCell>
        <mxCell id="409" style="edgeStyle=orthogonalEdgeStyle;rounded=0;html=1;dashed=0;labelBackgroundColor=none;startArrow=none;startFill=0;startSize=4;endArrow=blockThin;endFill=1;endSize=4;strokeColor=#4284F3;strokeWidth=2;fontSize=12;" parent="1" source="380" target="376" edge="1">
          <mxGeometry relative="1" as="geometry" />
        </mxCell>
        <mxCell id="410" style="edgeStyle=orthogonalEdgeStyle;rounded=0;html=1;dashed=0;labelBackgroundColor=none;startArrow=none;startFill=0;startSize=4;endArrow=blockThin;endFill=1;endSize=4;strokeColor=#4284F3;strokeWidth=2;fontSize=12;entryX=0.5;entryY=0;entryDx=0;entryDy=0;" parent="1" source="380" target="382" edge="1">
          <mxGeometry relative="1" as="geometry">
            <Array as="points">
              <mxPoint x="765" y="250" />
              <mxPoint x="765" y="250" />
            </Array>
            <mxPoint x="759.4857142857145" y="239" as="targetPoint" />
          </mxGeometry>
        </mxCell>
        <mxCell id="380" value="" style="strokeColor=#dddddd;fillColor=#ffffff;shadow=1;strokeWidth=1;rounded=1;absoluteArcSize=1;arcSize=2;fontSize=12;fontColor=#9E9E9E;align=center;html=1;" parent="1" vertex="1">
          <mxGeometry x="680.5" y="138" width="158" height="70" as="geometry" />
        </mxCell>
        <mxCell id="381" value="&lt;font color=&quot;#000000&quot;&gt;Messaging&lt;/font&gt;&lt;br&gt;Cloud Pub/Sub&lt;hr&gt;&lt;font style=&quot;font-size: 11px&quot;&gt;Rules Actions&lt;/font&gt;" style="dashed=0;connectable=0;html=1;fillColor=#5184F3;strokeColor=none;shape=mxgraph.gcp2.hexIcon;prIcon=cloud_pubsub;part=1;labelPosition=right;verticalLabelPosition=middle;align=left;verticalAlign=top;spacingLeft=5;fontColor=#999999;fontSize=12;spacingTop=-8;" parent="380" vertex="1">
          <mxGeometry width="44" height="39" relative="1" as="geometry">
            <mxPoint x="5" y="7" as="offset" />
          </mxGeometry>
        </mxCell>
        <mxCell id="382" value="" style="shape=mxgraph.gcp2.doubleRect;strokeColor=#dddddd;fillColor=#ffffff;shadow=1;strokeWidth=1;fontSize=12;fontColor=#9E9E9E;align=center;html=1;" parent="1" vertex="1">
          <mxGeometry x="680.5" y="301" width="168" height="68" as="geometry" />
        </mxCell>
        <mxCell id="383" value="&lt;font color=&quot;#000000&quot;&gt;Cloud Apps&lt;/font&gt;&lt;br&gt;Compute Engine" style="dashed=0;connectable=0;html=1;fillColor=#5184F3;strokeColor=none;shape=mxgraph.gcp2.hexIcon;prIcon=compute_engine;part=1;labelPosition=right;verticalLabelPosition=middle;align=left;verticalAlign=middle;spacingLeft=5;fontColor=#999999;fontSize=12;" parent="382" vertex="1">
          <mxGeometry y="0.5" width="44" height="39" relative="1" as="geometry">
            <mxPoint x="5" y="-19.5" as="offset" />
          </mxGeometry>
        </mxCell>
        <mxCell id="411" style="edgeStyle=orthogonalEdgeStyle;rounded=0;html=1;dashed=0;labelBackgroundColor=none;startArrow=none;startFill=0;startSize=4;endArrow=blockThin;endFill=1;endSize=4;strokeColor=#4284F3;strokeWidth=2;fontSize=12;" parent="1" source="384" target="391" edge="1">
          <mxGeometry relative="1" as="geometry" />
        </mxCell>
        <mxCell id="412" style="edgeStyle=orthogonalEdgeStyle;rounded=0;html=1;dashed=0;labelBackgroundColor=none;startArrow=none;startFill=0;startSize=4;endArrow=blockThin;endFill=1;endSize=4;strokeColor=#4284F3;strokeWidth=2;fontSize=12;" parent="1" source="384" target="386" edge="1">
          <mxGeometry relative="1" as="geometry">
            <Array as="points">
              <mxPoint x="759.5" y="505" />
              <mxPoint x="759.5" y="505" />
            </Array>
          </mxGeometry>
        </mxCell>
        <mxCell id="384" value="" style="strokeColor=#dddddd;fillColor=#ffffff;shadow=1;strokeWidth=1;rounded=1;absoluteArcSize=1;arcSize=2;fontSize=12;fontColor=#9E9E9E;align=center;html=1;" parent="1" vertex="1">
          <mxGeometry x="680.5" y="405" width="157" height="70" as="geometry" />
        </mxCell>
        <mxCell id="385" value="&lt;font color=&quot;#000000&quot;&gt;Data Warehouse&lt;/font&gt;&lt;br&gt;BigQuery&lt;hr&gt;&lt;font style=&quot;font-size: 11px&quot;&gt;Execution Results&lt;/font&gt;" style="dashed=0;connectable=0;html=1;fillColor=#5184F3;strokeColor=none;shape=mxgraph.gcp2.hexIcon;prIcon=bigquery;part=1;labelPosition=right;verticalLabelPosition=middle;align=left;verticalAlign=top;spacingLeft=5;fontColor=#999999;fontSize=12;spacingTop=-8;" parent="384" vertex="1">
          <mxGeometry width="44" height="39" relative="1" as="geometry">
            <mxPoint x="5" y="7" as="offset" />
          </mxGeometry>
        </mxCell>
        <mxCell id="386" value="" style="strokeColor=#dddddd;fillColor=#ffffff;shadow=1;strokeWidth=1;rounded=1;absoluteArcSize=1;arcSize=2;fontSize=12;fontColor=#9E9E9E;align=center;html=1;" parent="1" vertex="1">
          <mxGeometry x="680.5" y="515" width="158" height="60" as="geometry" />
        </mxCell>
        <mxCell id="387" value="&lt;font color=&quot;#000000&quot;&gt;Data Analysis&lt;/font&gt;&lt;br&gt;Cloud Datalab" style="dashed=0;connectable=0;html=1;fillColor=#5184F3;strokeColor=none;shape=mxgraph.gcp2.hexIcon;prIcon=cloud_datalab;part=1;labelPosition=right;verticalLabelPosition=middle;align=left;verticalAlign=middle;spacingLeft=5;fontColor=#999999;fontSize=12;" parent="386" vertex="1">
          <mxGeometry y="0.5" width="44" height="39" relative="1" as="geometry">
            <mxPoint x="5" y="-19.5" as="offset" />
          </mxGeometry>
        </mxCell>
        <mxCell id="388" value="Mobile Devices&lt;br&gt;&lt;font style=&quot;font-size: 10px&quot;&gt;Push Notification&lt;/font&gt;&lt;br&gt;" style="rounded=1;absoluteArcSize=1;arcSize=2;html=1;strokeColor=none;gradientColor=none;shadow=0;dashed=0;fontSize=12;fontColor=#9E9E9E;align=left;verticalAlign=top;spacing=10;spacingTop=-4;fillColor=#F1F8E9;" parent="1" vertex="1">
          <mxGeometry x="898.5" y="33" width="110" height="130" as="geometry" />
        </mxCell>
        <mxCell id="389" value="" style="strokeColor=#dddddd;fillColor=#ffffff;shadow=1;strokeWidth=1;rounded=1;absoluteArcSize=1;arcSize=2;labelPosition=center;verticalLabelPosition=middle;align=center;verticalAlign=bottom;spacingLeft=0;fontColor=#999999;fontSize=12;whiteSpace=wrap;spacingBottom=2;html=1;" parent="1" vertex="1">
          <mxGeometry x="918.5" y="78" width="70" height="70" as="geometry" />
        </mxCell>
        <mxCell id="390" value="" style="dashed=0;connectable=0;html=1;fillColor=#757575;strokeColor=none;shape=mxgraph.gcp2.mobile_devices;part=1;" parent="389" vertex="1">
          <mxGeometry x="0.5" width="50" height="36.5" relative="1" as="geometry">
            <mxPoint x="-25" y="16.75" as="offset" />
          </mxGeometry>
        </mxCell>
        <mxCell id="391" value="Report &amp;amp; Share&lt;br&gt;&lt;font style=&quot;font-size: 10px&quot;&gt;Business Analysis&lt;/font&gt;&lt;br&gt;" style="rounded=1;absoluteArcSize=1;arcSize=2;html=1;strokeColor=none;gradientColor=none;shadow=0;dashed=0;fontSize=12;fontColor=#9E9E9E;align=left;verticalAlign=top;spacing=10;spacingTop=-4;fillColor=#F3E5F5;" parent="1" vertex="1">
          <mxGeometry x="898.5" y="376" width="170" height="128" as="geometry" />
        </mxCell>
        <mxCell id="392" value="" style="strokeColor=#dddddd;fillColor=#ffffff;shadow=1;strokeWidth=1;rounded=1;absoluteArcSize=1;arcSize=2;labelPosition=center;verticalLabelPosition=middle;align=center;verticalAlign=bottom;spacingLeft=0;fontColor=#999999;fontSize=12;whiteSpace=wrap;spacingBottom=2;html=1;" parent="1" vertex="1">
          <mxGeometry x="908.5" y="423" width="70" height="70" as="geometry" />
        </mxCell>
        <mxCell id="393" value="" style="dashed=0;connectable=0;html=1;fillColor=#757575;strokeColor=none;shape=mxgraph.gcp2.report;part=1;" parent="392" vertex="1">
          <mxGeometry x="0.5" width="50" height="50" relative="1" as="geometry">
            <mxPoint x="-25" y="10" as="offset" />
          </mxGeometry>
        </mxCell>
        <mxCell id="394" value="" style="strokeColor=#dddddd;fillColor=#ffffff;shadow=1;strokeWidth=1;rounded=1;absoluteArcSize=1;arcSize=2;labelPosition=center;verticalLabelPosition=middle;align=center;verticalAlign=bottom;spacingLeft=0;fontColor=#999999;fontSize=12;whiteSpace=wrap;spacingBottom=2;html=1;" parent="1" vertex="1">
          <mxGeometry x="988.5" y="423" width="70" height="70" as="geometry" />
        </mxCell>
        <mxCell id="395" value="" style="dashed=0;connectable=0;html=1;fillColor=#757575;strokeColor=none;shape=mxgraph.gcp2.users;part=1;" parent="394" vertex="1">
          <mxGeometry x="0.5" width="50" height="31.5" relative="1" as="geometry">
            <mxPoint x="-25" y="19.25" as="offset" />
          </mxGeometry>
        </mxCell>
        <mxCell id="i_Fcsn6_QUgu9OQFPRpI-426" value="" style="shape=image;html=1;verticalAlign=top;verticalLabelPosition=bottom;labelBackgroundColor=#ffffff;imageAspect=0;aspect=fixed;image=https://cdn3.iconfinder.com/data/icons/2018-social-media-logotypes/1000/2018_social_media_popular_app_logo_facebook-128.png" vertex="1" parent="1">
          <mxGeometry x="978.5" y="567.5" width="128" height="128" as="geometry" />
        </mxCell>
        <mxCell id="i_Fcsn6_QUgu9OQFPRpI-427" value="" style="shape=image;html=1;verticalAlign=top;verticalLabelPosition=bottom;labelBackgroundColor=#ffffff;imageAspect=0;aspect=fixed;image=https://cdn3.iconfinder.com/data/icons/2018-social-media-logotypes/1000/2018_social_media_popular_app_logo_twitter-128.png" vertex="1" parent="1">
          <mxGeometry x="1080" y="587.5" width="128" height="128" as="geometry" />
        </mxCell>
        <mxCell id="i_Fcsn6_QUgu9OQFPRpI-428" value="" style="shape=image;html=1;verticalAlign=top;verticalLabelPosition=bottom;labelBackgroundColor=#ffffff;imageAspect=0;aspect=fixed;image=https://cdn3.iconfinder.com/data/icons/2018-social-media-logotypes/1000/2018_social_media_popular_app_logo_instagram-128.png" vertex="1" parent="1">
          <mxGeometry x="1130" y="660" width="128" height="128" as="geometry" />
        </mxCell>
        <mxCell id="i_Fcsn6_QUgu9OQFPRpI-429" value="" style="shape=image;html=1;verticalAlign=top;verticalLabelPosition=bottom;labelBackgroundColor=#ffffff;imageAspect=0;aspect=fixed;image=https://cdn4.iconfinder.com/data/icons/ionicons/512/icon-social-youtube-outline-128.png" vertex="1" parent="1">
          <mxGeometry x="1002" y="660" width="128" height="128" as="geometry" />
        </mxCell>
        <mxCell id="i_Fcsn6_QUgu9OQFPRpI-431" value="" style="shape=image;imageAspect=0;aspect=fixed;verticalLabelPosition=bottom;verticalAlign=top;image=https://cdn-icons-png.flaticon.com/512/6091/6091352.png;" vertex="1" parent="1">
          <mxGeometry x="814" y="980" width="104.5" height="104.5" as="geometry" />
        </mxCell>
        <mxCell id="i_Fcsn6_QUgu9OQFPRpI-434" value="" style="shape=image;imageAspect=0;aspect=fixed;verticalLabelPosition=bottom;verticalAlign=top;image=https://cdn-icons-png.flaticon.com/512/3930/3930419.png;" vertex="1" parent="1">
          <mxGeometry x="1008.5" y="870" width="130" height="130" as="geometry" />
        </mxCell>
        <mxCell id="i_Fcsn6_QUgu9OQFPRpI-435" value="" style="shape=image;html=1;verticalAlign=top;verticalLabelPosition=bottom;labelBackgroundColor=#ffffff;imageAspect=0;aspect=fixed;image=https://cdn3.iconfinder.com/data/icons/capsocial-round/500/linkedin-128.png" vertex="1" parent="1">
          <mxGeometry x="1180" y="728" width="128" height="128" as="geometry" />
        </mxCell>
        <mxCell id="i_Fcsn6_QUgu9OQFPRpI-437" value="" style="dashed=0;outlineConnect=0;html=1;align=center;labelPosition=center;verticalLabelPosition=bottom;verticalAlign=top;shape=mxgraph.weblogos.onedrive;fillColor=#094AB1;strokeColor=none" vertex="1" parent="1">
          <mxGeometry x="524.8" y="826.8" width="71.2" height="43.2" as="geometry" />
        </mxCell>
        <mxCell id="i_Fcsn6_QUgu9OQFPRpI-445" value="" style="group" vertex="1" connectable="0" parent="1">
          <mxGeometry x="1062.17" y="1050" width="35.5" height="50.83999999999992" as="geometry" />
        </mxCell>
        <mxCell id="i_Fcsn6_QUgu9OQFPRpI-421" value="" style="shape=image;imageAspect=0;aspect=fixed;verticalLabelPosition=bottom;verticalAlign=top;image=https://softprodigy.com/wp-content/uploads/2022/09/web-scraper-tool.png-1.webp;" vertex="1" parent="i_Fcsn6_QUgu9OQFPRpI-445">
          <mxGeometry x="2.3299999999999272" width="30.84" height="30.84" as="geometry" />
        </mxCell>
        <mxCell id="i_Fcsn6_QUgu9OQFPRpI-444" value="&lt;div style=&quot;font-size: 9px;&quot;&gt;&lt;span style=&quot;background-color: initial; font-size: 9px;&quot;&gt;WEB&lt;/span&gt;&lt;/div&gt;&lt;div style=&quot;font-size: 9px;&quot;&gt;&lt;span style=&quot;background-color: initial; font-size: 9px;&quot;&gt;Scraping&lt;/span&gt;&lt;/div&gt;" style="text;strokeColor=none;align=center;fillColor=none;html=1;verticalAlign=middle;whiteSpace=wrap;rounded=0;fontStyle=1;fontSize=9;" vertex="1" parent="i_Fcsn6_QUgu9OQFPRpI-445">
          <mxGeometry y="30.839999999999918" width="35.5" height="20" as="geometry" />
        </mxCell>
        <mxCell id="i_Fcsn6_QUgu9OQFPRpI-446" value="" style="group" vertex="1" connectable="0" parent="1">
          <mxGeometry x="1018.5" y="1050" width="27.5" height="42" as="geometry" />
        </mxCell>
        <mxCell id="i_Fcsn6_QUgu9OQFPRpI-416" value="" style="sketch=0;points=[[0,0,0],[0.25,0,0],[0.5,0,0],[0.75,0,0],[1,0,0],[0,1,0],[0.25,1,0],[0.5,1,0],[0.75,1,0],[1,1,0],[0,0.25,0],[0,0.5,0],[0,0.75,0],[1,0.25,0],[1,0.5,0],[1,0.75,0]];outlineConnect=0;fontColor=#232F3E;gradientColor=#FF4F8B;gradientDirection=north;fillColor=#BC1356;strokeColor=#ffffff;dashed=0;verticalLabelPosition=bottom;verticalAlign=top;align=center;html=1;fontSize=12;fontStyle=0;aspect=fixed;shape=mxgraph.aws4.resourceIcon;resIcon=mxgraph.aws4.api_gateway;" vertex="1" parent="i_Fcsn6_QUgu9OQFPRpI-446">
          <mxGeometry x="1.5" width="25" height="25" as="geometry" />
        </mxCell>
        <mxCell id="i_Fcsn6_QUgu9OQFPRpI-443" value="API" style="text;strokeColor=none;align=center;fillColor=none;html=1;verticalAlign=middle;whiteSpace=wrap;rounded=0;fontStyle=1;fontSize=9;" vertex="1" parent="i_Fcsn6_QUgu9OQFPRpI-446">
          <mxGeometry y="22" width="27.5" height="20" as="geometry" />
        </mxCell>
        <mxCell id="i_Fcsn6_QUgu9OQFPRpI-456" value="" style="whiteSpace=wrap;html=1;rounded=1;arcSize=6;shadow=1;glass=0;strokeColor=#CCCCCC;" vertex="1" parent="1">
          <mxGeometry x="1130" y="83.5" width="100" height="114" as="geometry" />
        </mxCell>
        <mxCell id="i_Fcsn6_QUgu9OQFPRpI-488" value="" style="group" vertex="1" connectable="0" parent="1">
          <mxGeometry x="481.88" y="680.12" width="78.12" height="63" as="geometry" />
        </mxCell>
        <mxCell id="i_Fcsn6_QUgu9OQFPRpI-484" value="" style="group" vertex="1" connectable="0" parent="i_Fcsn6_QUgu9OQFPRpI-488">
          <mxGeometry x="1.1200000000000045" y="48.879999999999995" width="77" height="14.120000000000005" as="geometry" />
        </mxCell>
        <mxCell id="i_Fcsn6_QUgu9OQFPRpI-468" value="" style="verticalLabelPosition=bottom;html=1;verticalAlign=top;align=center;strokeColor=none;fillColor=#00BEF2;shape=mxgraph.azure.git_repository;aspect=fixed;" vertex="1" parent="i_Fcsn6_QUgu9OQFPRpI-484">
          <mxGeometry y="0.12000000000000455" width="14" height="14" as="geometry" />
        </mxCell>
        <mxCell id="i_Fcsn6_QUgu9OQFPRpI-469" value="&lt;div style=&quot;font-size: 9px;&quot;&gt;GIT&lt;/div&gt;" style="text;strokeColor=none;align=left;fillColor=none;html=1;verticalAlign=middle;whiteSpace=wrap;rounded=0;fontStyle=1;fontSize=9;" vertex="1" parent="i_Fcsn6_QUgu9OQFPRpI-484">
          <mxGeometry x="19" width="58" height="14.12" as="geometry" />
        </mxCell>
        <mxCell id="i_Fcsn6_QUgu9OQFPRpI-485" value="" style="group" vertex="1" connectable="0" parent="i_Fcsn6_QUgu9OQFPRpI-488">
          <mxGeometry x="1.1200000000000045" y="33.57000000000005" width="77" height="14.120000000000005" as="geometry" />
        </mxCell>
        <mxCell id="i_Fcsn6_QUgu9OQFPRpI-463" value="" style="verticalLabelPosition=bottom;html=1;verticalAlign=top;align=center;strokeColor=none;fillColor=#00BEF2;shape=mxgraph.azure.visual_studio_online;aspect=fixed;" vertex="1" parent="i_Fcsn6_QUgu9OQFPRpI-485">
          <mxGeometry y="1.8199999999999363" width="14" height="10.49" as="geometry" />
        </mxCell>
        <mxCell id="i_Fcsn6_QUgu9OQFPRpI-464" value="&lt;div style=&quot;font-size: 9px;&quot;&gt;VSCode&lt;/div&gt;" style="text;strokeColor=none;align=left;fillColor=none;html=1;verticalAlign=middle;whiteSpace=wrap;rounded=0;fontStyle=1;fontSize=9;" vertex="1" parent="i_Fcsn6_QUgu9OQFPRpI-485">
          <mxGeometry x="19" width="58" height="14.12" as="geometry" />
        </mxCell>
        <mxCell id="i_Fcsn6_QUgu9OQFPRpI-486" value="" style="group" vertex="1" connectable="0" parent="i_Fcsn6_QUgu9OQFPRpI-488">
          <mxGeometry x="1.1200000000000045" y="17.819999999999936" width="77" height="15.330000000000041" as="geometry" />
        </mxCell>
        <mxCell id="i_Fcsn6_QUgu9OQFPRpI-471" value="" style="shape=image;imageAspect=0;aspect=fixed;verticalLabelPosition=bottom;verticalAlign=top;image=https://upload.wikimedia.org/wikipedia/commons/thumb/c/c3/Python-logo-notext.svg/1869px-Python-logo-notext.svg.png;" vertex="1" parent="i_Fcsn6_QUgu9OQFPRpI-486">
          <mxGeometry width="14" height="15.33" as="geometry" />
        </mxCell>
        <mxCell id="i_Fcsn6_QUgu9OQFPRpI-473" value="&lt;div style=&quot;font-size: 9px;&quot;&gt;Python&lt;/div&gt;" style="text;strokeColor=none;align=left;fillColor=none;html=1;verticalAlign=middle;whiteSpace=wrap;rounded=0;fontStyle=1;fontSize=9;" vertex="1" parent="i_Fcsn6_QUgu9OQFPRpI-486">
          <mxGeometry x="19" y="1.1368683772161603e-13" width="58" height="14.12" as="geometry" />
        </mxCell>
        <mxCell id="i_Fcsn6_QUgu9OQFPRpI-487" value="" style="group" vertex="1" connectable="0" parent="i_Fcsn6_QUgu9OQFPRpI-488">
          <mxGeometry width="78.12" height="15" as="geometry" />
        </mxCell>
        <mxCell id="i_Fcsn6_QUgu9OQFPRpI-475" value="" style="shape=image;html=1;verticalAlign=top;verticalLabelPosition=bottom;labelBackgroundColor=#ffffff;imageAspect=0;aspect=fixed;image=https://cdn1.iconfinder.com/data/icons/operating-system-flat-1/30/ubuntu-128.png" vertex="1" parent="i_Fcsn6_QUgu9OQFPRpI-487">
          <mxGeometry width="15" height="15" as="geometry" />
        </mxCell>
        <mxCell id="i_Fcsn6_QUgu9OQFPRpI-476" value="&lt;div style=&quot;font-size: 9px;&quot;&gt;Ubuntu&lt;/div&gt;" style="text;strokeColor=none;align=left;fillColor=none;html=1;verticalAlign=middle;whiteSpace=wrap;rounded=0;fontStyle=1;fontSize=9;" vertex="1" parent="i_Fcsn6_QUgu9OQFPRpI-487">
          <mxGeometry x="20.120000000000005" y="0.8799999999999955" width="58" height="14.12" as="geometry" />
        </mxCell>
        <mxCell id="i_Fcsn6_QUgu9OQFPRpI-532" value="" style="group" vertex="1" connectable="0" parent="1">
          <mxGeometry x="-440" y="-20" width="520" height="500" as="geometry" />
        </mxCell>
        <mxCell id="i_Fcsn6_QUgu9OQFPRpI-491" value="&lt;b&gt;On-Premises&lt;/b&gt;" style="fillColor=#F6F6F6;strokeColor=none;shadow=0;gradientColor=none;fontSize=14;align=left;spacing=10;fontColor=#717171;9E9E9E;verticalAlign=top;spacingTop=-4;fontStyle=0;spacingLeft=40;html=1;" vertex="1" parent="i_Fcsn6_QUgu9OQFPRpI-532">
          <mxGeometry width="520" height="500" as="geometry" />
        </mxCell>
        <mxCell id="341" value="Batch" style="rounded=1;absoluteArcSize=1;arcSize=2;html=1;strokeColor=#4284F3;gradientColor=none;shadow=0;dashed=1;fontSize=12;fontColor=#9E9E9E;align=left;verticalAlign=top;spacing=10;spacingTop=-4;fillColor=none;dashPattern=1 2;strokeWidth=2;" parent="i_Fcsn6_QUgu9OQFPRpI-532" vertex="1">
          <mxGeometry x="30" y="53" width="170" height="427" as="geometry" />
        </mxCell>
        <mxCell id="i_Fcsn6_QUgu9OQFPRpI-489" value="" style="group" vertex="1" connectable="0" parent="i_Fcsn6_QUgu9OQFPRpI-532">
          <mxGeometry x="50" y="83" width="130.5" height="179" as="geometry" />
        </mxCell>
        <mxCell id="340" value="&lt;font style=&quot;font-size: 10px&quot;&gt;Applications&lt;/font&gt;" style="rounded=1;absoluteArcSize=1;arcSize=2;html=1;strokeColor=none;gradientColor=none;shadow=0;dashed=0;fontSize=12;fontColor=#9E9E9E;align=left;verticalAlign=top;spacing=10;spacingTop=-4;fillColor=#EFEBE9;" parent="i_Fcsn6_QUgu9OQFPRpI-489" vertex="1">
          <mxGeometry width="130.5" height="179" as="geometry" />
        </mxCell>
        <mxCell id="i_Fcsn6_QUgu9OQFPRpI-455" value="" style="group" vertex="1" connectable="0" parent="i_Fcsn6_QUgu9OQFPRpI-489">
          <mxGeometry x="15.25" y="55" width="100" height="114" as="geometry" />
        </mxCell>
        <mxCell id="i_Fcsn6_QUgu9OQFPRpI-453" value="" style="whiteSpace=wrap;html=1;rounded=1;arcSize=6;shadow=1;glass=0;strokeColor=#CCCCCC;" vertex="1" parent="i_Fcsn6_QUgu9OQFPRpI-455">
          <mxGeometry width="100" height="114" as="geometry" />
        </mxCell>
        <mxCell id="i_Fcsn6_QUgu9OQFPRpI-452" value="" style="group" vertex="1" connectable="0" parent="i_Fcsn6_QUgu9OQFPRpI-455">
          <mxGeometry x="8.5" y="7" width="87.49" height="100" as="geometry" />
        </mxCell>
        <mxCell id="i_Fcsn6_QUgu9OQFPRpI-441" value="" style="group" vertex="1" connectable="0" parent="i_Fcsn6_QUgu9OQFPRpI-452">
          <mxGeometry width="85.84538318529228" height="55.72289156626506" as="geometry" />
        </mxCell>
        <mxCell id="i_Fcsn6_QUgu9OQFPRpI-422" value="" style="shape=image;html=1;verticalAlign=top;verticalLabelPosition=bottom;labelBackgroundColor=#ffffff;imageAspect=0;aspect=fixed;image=https://cdn1.iconfinder.com/data/icons/bootstrap-vol-3/16/filetype-xml-128.png" vertex="1" parent="i_Fcsn6_QUgu9OQFPRpI-441">
          <mxGeometry y="1.506024096385542" width="24.095845837944847" height="24.095845837944847" as="geometry" />
        </mxCell>
        <mxCell id="i_Fcsn6_QUgu9OQFPRpI-424" value="" style="shape=image;html=1;verticalAlign=top;verticalLabelPosition=bottom;labelBackgroundColor=#ffffff;imageAspect=0;aspect=fixed;image=https://cdn1.iconfinder.com/data/icons/bootstrap-vol-3/16/filetype-txt-128.png" vertex="1" parent="i_Fcsn6_QUgu9OQFPRpI-441">
          <mxGeometry x="60.24237416511739" width="25.6018362028164" height="25.6018362028164" as="geometry" />
        </mxCell>
        <mxCell id="i_Fcsn6_QUgu9OQFPRpI-425" value="" style="shape=image;html=1;verticalAlign=top;verticalLabelPosition=bottom;labelBackgroundColor=#ffffff;imageAspect=0;aspect=fixed;image=https://cdn1.iconfinder.com/data/icons/bootstrap-vol-3/16/filetype-json-128.png" vertex="1" parent="i_Fcsn6_QUgu9OQFPRpI-441">
          <mxGeometry x="0.3012118708255869" y="31.024096385542176" width="24.095845837944847" height="24.095845837944847" as="geometry" />
        </mxCell>
        <mxCell id="i_Fcsn6_QUgu9OQFPRpI-432" value="" style="shape=image;html=1;verticalAlign=top;verticalLabelPosition=bottom;labelBackgroundColor=#ffffff;imageAspect=0;aspect=fixed;image=https://cdn1.iconfinder.com/data/icons/bootstrap-vol-3/16/filetype-yml-128.png" vertex="1" parent="i_Fcsn6_QUgu9OQFPRpI-441">
          <mxGeometry x="30.121187082558695" y="31.024096385542176" width="24.698241983893467" height="24.698241983893467" as="geometry" />
        </mxCell>
        <mxCell id="i_Fcsn6_QUgu9OQFPRpI-433" value="" style="shape=image;html=1;verticalAlign=top;verticalLabelPosition=bottom;labelBackgroundColor=#ffffff;imageAspect=0;aspect=fixed;image=https://cdn1.iconfinder.com/data/icons/bootstrap-vol-3/16/filetype-pdf-128.png" vertex="1" parent="i_Fcsn6_QUgu9OQFPRpI-441">
          <mxGeometry x="60.24237416511739" y="31.024096385542176" width="24.698241983893467" height="24.698241983893467" as="geometry" />
        </mxCell>
        <mxCell id="i_Fcsn6_QUgu9OQFPRpI-440" value="" style="shape=image;html=1;verticalAlign=top;verticalLabelPosition=bottom;labelBackgroundColor=#ffffff;imageAspect=0;aspect=fixed;image=https://cdn1.iconfinder.com/data/icons/bootstrap-vol-3/16/filetype-csv-128.png" vertex="1" parent="i_Fcsn6_QUgu9OQFPRpI-441">
          <mxGeometry x="30.121187082558695" y="1.2048192771084338" width="24.397043910919162" height="24.397043910919162" as="geometry" />
        </mxCell>
        <mxCell id="i_Fcsn6_QUgu9OQFPRpI-447" value="" style="shape=image;imageAspect=0;aspect=fixed;verticalLabelPosition=bottom;verticalAlign=top;image=https://www.pngkey.com/png/full/917-9178816_download-icons-microsoft-office-svg-eps-png-psd.png;" vertex="1" parent="i_Fcsn6_QUgu9OQFPRpI-452">
          <mxGeometry y="62.65060240963856" width="87.48599227611825" height="37.34856104881452" as="geometry" />
        </mxCell>
        <mxCell id="i_Fcsn6_QUgu9OQFPRpI-493" value="" style="shape=image;imageAspect=0;aspect=fixed;verticalLabelPosition=bottom;verticalAlign=top;image=https://cdn0.iconfinder.com/data/icons/cloud-services-color/57/1_color-512.png;" vertex="1" parent="i_Fcsn6_QUgu9OQFPRpI-532">
          <mxGeometry x="16.59375" y="3" width="27.65625" height="27.65625" as="geometry" />
        </mxCell>
        <mxCell id="i_Fcsn6_QUgu9OQFPRpI-490" value="" style="group" vertex="1" connectable="0" parent="i_Fcsn6_QUgu9OQFPRpI-532">
          <mxGeometry x="46.09375" y="271" width="120.3046875" height="196.5" as="geometry" />
        </mxCell>
        <mxCell id="356" value="&lt;font style=&quot;font-size: 10px&quot;&gt;Databases&lt;/font&gt;" style="rounded=1;absoluteArcSize=1;arcSize=2;html=1;strokeColor=none;gradientColor=none;shadow=0;dashed=0;fontSize=12;fontColor=#9E9E9E;align=left;verticalAlign=top;spacing=10;spacingTop=-4;fillColor=#EFEBE9;" parent="i_Fcsn6_QUgu9OQFPRpI-490" vertex="1">
          <mxGeometry width="120.3046875" height="196.5" as="geometry" />
        </mxCell>
        <mxCell id="i_Fcsn6_QUgu9OQFPRpI-457" value="" style="group" vertex="1" connectable="0" parent="i_Fcsn6_QUgu9OQFPRpI-490">
          <mxGeometry x="14.05859375" y="56.5" width="92.1875" height="114" as="geometry" />
        </mxCell>
        <mxCell id="i_Fcsn6_QUgu9OQFPRpI-454" value="" style="whiteSpace=wrap;html=1;rounded=1;arcSize=6;shadow=1;glass=0;strokeColor=#CCCCCC;" vertex="1" parent="i_Fcsn6_QUgu9OQFPRpI-457">
          <mxGeometry width="92.1875" height="114" as="geometry" />
        </mxCell>
        <mxCell id="i_Fcsn6_QUgu9OQFPRpI-451" value="" style="group" vertex="1" connectable="0" parent="i_Fcsn6_QUgu9OQFPRpI-457">
          <mxGeometry x="14.565624999999958" y="24.5" width="67.48125" height="65" as="geometry" />
        </mxCell>
        <mxCell id="i_Fcsn6_QUgu9OQFPRpI-436" value="" style="sketch=0;outlineConnect=0;fontColor=#232F3E;gradientColor=none;fillColor=#2E27AD;strokeColor=none;dashed=0;verticalLabelPosition=bottom;verticalAlign=top;align=center;html=1;fontSize=12;fontStyle=0;aspect=fixed;pointerEvents=1;shape=mxgraph.aws4.rds_mysql_instance;" vertex="1" parent="i_Fcsn6_QUgu9OQFPRpI-451">
          <mxGeometry width="27.9328125" height="27.9328125" as="geometry" />
        </mxCell>
        <mxCell id="i_Fcsn6_QUgu9OQFPRpI-448" value="" style="sketch=0;outlineConnect=0;fontColor=#232F3E;gradientColor=none;fillColor=#2E27AD;strokeColor=none;dashed=0;verticalLabelPosition=bottom;verticalAlign=top;align=center;html=1;fontSize=12;fontStyle=0;aspect=fixed;pointerEvents=1;shape=mxgraph.aws4.rds_oracle_instance;" vertex="1" parent="i_Fcsn6_QUgu9OQFPRpI-451">
          <mxGeometry x="39.825" width="27.65625" height="27.65625" as="geometry" />
        </mxCell>
        <mxCell id="i_Fcsn6_QUgu9OQFPRpI-449" value="" style="sketch=0;outlineConnect=0;fontColor=#232F3E;gradientColor=none;fillColor=#2E27AD;strokeColor=none;dashed=0;verticalLabelPosition=bottom;verticalAlign=top;align=center;html=1;fontSize=12;fontStyle=0;aspect=fixed;pointerEvents=1;shape=mxgraph.aws4.rds_postgresql_instance;" vertex="1" parent="i_Fcsn6_QUgu9OQFPRpI-451">
          <mxGeometry y="35" width="27.65625" height="27.65625" as="geometry" />
        </mxCell>
        <mxCell id="i_Fcsn6_QUgu9OQFPRpI-450" value="" style="sketch=0;outlineConnect=0;fontColor=#232F3E;gradientColor=none;fillColor=#2E27AD;strokeColor=none;dashed=0;verticalLabelPosition=bottom;verticalAlign=top;align=center;html=1;fontSize=12;fontStyle=0;aspect=fixed;pointerEvents=1;shape=mxgraph.aws4.rds_sql_server_instance;" vertex="1" parent="i_Fcsn6_QUgu9OQFPRpI-451">
          <mxGeometry x="39.825" y="35" width="27.65625" height="27.65625" as="geometry" />
        </mxCell>
        <mxCell id="i_Fcsn6_QUgu9OQFPRpI-530" value="" style="group" vertex="1" connectable="0" parent="i_Fcsn6_QUgu9OQFPRpI-532">
          <mxGeometry x="269.99875" y="190" width="221.25" height="170" as="geometry" />
        </mxCell>
        <mxCell id="i_Fcsn6_QUgu9OQFPRpI-458" value="On-Premise" style="sketch=0;outlineConnect=0;gradientColor=none;html=1;whiteSpace=wrap;fontSize=12;fontStyle=0;shape=mxgraph.aws4.group;grIcon=mxgraph.aws4.group_on_premise;strokeColor=#858B94;fillColor=#EFEBE9;verticalAlign=top;align=left;spacingLeft=30;fontColor=#858B94;dashed=0;container=0;" vertex="1" parent="i_Fcsn6_QUgu9OQFPRpI-530">
          <mxGeometry width="221.25" height="170" as="geometry" />
        </mxCell>
        <mxCell id="i_Fcsn6_QUgu9OQFPRpI-506" value="" style="group;aspect=fixed;fontSize=9;" vertex="1" connectable="0" parent="i_Fcsn6_QUgu9OQFPRpI-530">
          <mxGeometry x="109.2421875" y="5.5" width="90.27921875000001" height="36.875" as="geometry" />
        </mxCell>
        <mxCell id="i_Fcsn6_QUgu9OQFPRpI-503" value="" style="group" vertex="1" connectable="0" parent="i_Fcsn6_QUgu9OQFPRpI-506">
          <mxGeometry x="65.7505253537736" y="2.725424981522542" width="24.528693396226423" height="34.149575018477464" as="geometry" />
        </mxCell>
        <mxCell id="i_Fcsn6_QUgu9OQFPRpI-501" value="" style="shape=image;imageAspect=0;aspect=fixed;verticalLabelPosition=bottom;verticalAlign=top;image=https://cdn.iconscout.com/icon/premium/png-256-thumb/ram-2141879-1801885.png?f=webp&amp;w=256;" vertex="1" parent="i_Fcsn6_QUgu9OQFPRpI-503">
          <mxGeometry width="24.890625000000004" height="24.890625000000004" as="geometry" />
        </mxCell>
        <mxCell id="i_Fcsn6_QUgu9OQFPRpI-502" value="&lt;div style=&quot;font-size: 6px;&quot;&gt;32 GB&lt;/div&gt;" style="text;strokeColor=none;align=center;fillColor=none;html=1;verticalAlign=middle;whiteSpace=wrap;rounded=0;fontStyle=1;fontSize=6;" vertex="1" parent="i_Fcsn6_QUgu9OQFPRpI-503">
          <mxGeometry x="2.0440577830188684" y="24.52882483370289" width="20.440577830188687" height="9.620750184774575" as="geometry" />
        </mxCell>
        <mxCell id="i_Fcsn6_QUgu9OQFPRpI-504" value="" style="group" vertex="1" connectable="0" parent="i_Fcsn6_QUgu9OQFPRpI-506">
          <mxGeometry x="35.771011202830195" y="4.088137472283813" width="21.80328301886793" height="32.78686252771618" as="geometry" />
        </mxCell>
        <mxCell id="i_Fcsn6_QUgu9OQFPRpI-499" value="" style="shape=image;imageAspect=0;aspect=fixed;verticalLabelPosition=bottom;verticalAlign=top;image=https://cdn-icons-png.flaticon.com/512/4617/4617565.png;" vertex="1" parent="i_Fcsn6_QUgu9OQFPRpI-504">
          <mxGeometry width="21.803283018867923" height="21.803283018867923" as="geometry" />
        </mxCell>
        <mxCell id="i_Fcsn6_QUgu9OQFPRpI-500" value="&lt;div style=&quot;font-size: 6px;&quot;&gt;1 TB&lt;/div&gt;" style="text;strokeColor=none;align=center;fillColor=none;html=1;verticalAlign=middle;whiteSpace=wrap;rounded=0;fontStyle=1;fontSize=6;" vertex="1" parent="i_Fcsn6_QUgu9OQFPRpI-504">
          <mxGeometry x="0.3406762971698114" y="23.166112342941606" width="20.440577830188687" height="9.620750184774572" as="geometry" />
        </mxCell>
        <mxCell id="i_Fcsn6_QUgu9OQFPRpI-505" value="" style="group" vertex="1" connectable="0" parent="i_Fcsn6_QUgu9OQFPRpI-506">
          <mxGeometry width="29.979514150943405" height="36.875" as="geometry" />
        </mxCell>
        <mxCell id="i_Fcsn6_QUgu9OQFPRpI-495" value="" style="shape=image;imageAspect=0;aspect=fixed;verticalLabelPosition=bottom;verticalAlign=top;image=https://cdn0.iconfinder.com/data/icons/mobile-phone-componets-1/144/mobile-icon_07-512.png;" vertex="1" parent="i_Fcsn6_QUgu9OQFPRpI-505">
          <mxGeometry width="29.9795141509434" height="29.9795141509434" as="geometry" />
        </mxCell>
        <mxCell id="i_Fcsn6_QUgu9OQFPRpI-496" value="&lt;div style=&quot;font-size: 6px;&quot;&gt;Core i7&lt;/div&gt;" style="text;strokeColor=none;align=center;fillColor=none;html=1;verticalAlign=middle;whiteSpace=wrap;rounded=0;fontStyle=1;fontSize=6;" vertex="1" parent="i_Fcsn6_QUgu9OQFPRpI-505">
          <mxGeometry x="3.7474392688679257" y="27.254249815225425" width="23.336326356132084" height="9.620750184774574" as="geometry" />
        </mxCell>
        <mxCell id="i_Fcsn6_QUgu9OQFPRpI-527" value="" style="group" vertex="1" connectable="0" parent="i_Fcsn6_QUgu9OQFPRpI-530">
          <mxGeometry x="113.78703125000001" y="55.47000000000003" width="92.1875" height="100" as="geometry" />
        </mxCell>
        <mxCell id="i_Fcsn6_QUgu9OQFPRpI-526" value="" style="whiteSpace=wrap;html=1;rounded=1;arcSize=6;shadow=1;glass=0;strokeColor=#CCCCCC;" vertex="1" parent="i_Fcsn6_QUgu9OQFPRpI-527">
          <mxGeometry width="92.1875" height="100" as="geometry" />
        </mxCell>
        <mxCell id="i_Fcsn6_QUgu9OQFPRpI-525" value="&lt;div style=&quot;font-size: 10px;&quot;&gt;Software&lt;/div&gt;" style="text;strokeColor=#666666;align=left;fillColor=#f5f5f5;html=1;verticalAlign=middle;whiteSpace=wrap;rounded=0;fontStyle=1;fontSize=10;fontColor=#333333;" vertex="1" parent="i_Fcsn6_QUgu9OQFPRpI-527">
          <mxGeometry x="6.388593750000006" y="7.940000000000055" width="76.58015624999999" height="14.12" as="geometry" />
        </mxCell>
        <mxCell id="i_Fcsn6_QUgu9OQFPRpI-524" value="" style="group" vertex="1" connectable="0" parent="i_Fcsn6_QUgu9OQFPRpI-527">
          <mxGeometry x="11.984375" y="29" width="72.016875" height="67.12" as="geometry" />
        </mxCell>
        <mxCell id="i_Fcsn6_QUgu9OQFPRpI-508" value="" style="group" vertex="1" connectable="0" parent="i_Fcsn6_QUgu9OQFPRpI-524">
          <mxGeometry x="1.032500000000004" y="34.879999999999995" width="70.98437499999999" height="14.120000000000005" as="geometry" />
        </mxCell>
        <mxCell id="i_Fcsn6_QUgu9OQFPRpI-509" value="" style="verticalLabelPosition=bottom;html=1;verticalAlign=top;align=center;strokeColor=none;fillColor=#00BEF2;shape=mxgraph.azure.git_repository;aspect=fixed;" vertex="1" parent="i_Fcsn6_QUgu9OQFPRpI-508">
          <mxGeometry y="0.12000000000000455" width="12.906249999999996" height="12.906249999999996" as="geometry" />
        </mxCell>
        <mxCell id="i_Fcsn6_QUgu9OQFPRpI-510" value="&lt;div style=&quot;font-size: 9px;&quot;&gt;GIT&lt;/div&gt;" style="text;strokeColor=none;align=left;fillColor=none;html=1;verticalAlign=middle;whiteSpace=wrap;rounded=0;fontStyle=1;fontSize=9;" vertex="1" parent="i_Fcsn6_QUgu9OQFPRpI-508">
          <mxGeometry x="17.515624999999996" width="53.468749999999986" height="14.12" as="geometry" />
        </mxCell>
        <mxCell id="i_Fcsn6_QUgu9OQFPRpI-514" value="" style="group" vertex="1" connectable="0" parent="i_Fcsn6_QUgu9OQFPRpI-524">
          <mxGeometry x="1.032500000000004" y="17.819999999999936" width="70.98437499999999" height="15.330000000000041" as="geometry" />
        </mxCell>
        <mxCell id="i_Fcsn6_QUgu9OQFPRpI-515" value="" style="shape=image;imageAspect=0;aspect=fixed;verticalLabelPosition=bottom;verticalAlign=top;image=https://upload.wikimedia.org/wikipedia/commons/thumb/c/c3/Python-logo-notext.svg/1869px-Python-logo-notext.svg.png;" vertex="1" parent="i_Fcsn6_QUgu9OQFPRpI-514">
          <mxGeometry width="12.906249999999996" height="14.132343749999997" as="geometry" />
        </mxCell>
        <mxCell id="i_Fcsn6_QUgu9OQFPRpI-516" value="&lt;div style=&quot;font-size: 9px;&quot;&gt;Python&lt;/div&gt;" style="text;strokeColor=none;align=left;fillColor=none;html=1;verticalAlign=middle;whiteSpace=wrap;rounded=0;fontStyle=1;fontSize=9;" vertex="1" parent="i_Fcsn6_QUgu9OQFPRpI-514">
          <mxGeometry x="17.515624999999996" y="1.1368683772161603e-13" width="53.468749999999986" height="14.12" as="geometry" />
        </mxCell>
        <mxCell id="i_Fcsn6_QUgu9OQFPRpI-517" value="" style="group" vertex="1" connectable="0" parent="i_Fcsn6_QUgu9OQFPRpI-524">
          <mxGeometry width="72.016875" height="15" as="geometry" />
        </mxCell>
        <mxCell id="i_Fcsn6_QUgu9OQFPRpI-518" value="" style="shape=image;html=1;verticalAlign=top;verticalLabelPosition=bottom;labelBackgroundColor=#ffffff;imageAspect=0;aspect=fixed;image=https://cdn1.iconfinder.com/data/icons/operating-system-flat-1/30/ubuntu-128.png" vertex="1" parent="i_Fcsn6_QUgu9OQFPRpI-517">
          <mxGeometry width="13.828124999999998" height="13.828124999999998" as="geometry" />
        </mxCell>
        <mxCell id="i_Fcsn6_QUgu9OQFPRpI-519" value="&lt;div style=&quot;font-size: 9px;&quot;&gt;Ubuntu&lt;/div&gt;" style="text;strokeColor=none;align=left;fillColor=none;html=1;verticalAlign=middle;whiteSpace=wrap;rounded=0;fontStyle=1;fontSize=9;" vertex="1" parent="i_Fcsn6_QUgu9OQFPRpI-517">
          <mxGeometry x="18.548125000000002" y="0.8799999999999955" width="53.46874999999999" height="14.12" as="geometry" />
        </mxCell>
        <mxCell id="i_Fcsn6_QUgu9OQFPRpI-523" value="" style="group" vertex="1" connectable="0" parent="i_Fcsn6_QUgu9OQFPRpI-524">
          <mxGeometry x="0.9218749999999999" y="53" width="71.095" height="14.120000000000005" as="geometry" />
        </mxCell>
        <mxCell id="i_Fcsn6_QUgu9OQFPRpI-521" value="" style="shape=image;imageAspect=0;aspect=fixed;verticalLabelPosition=bottom;verticalAlign=top;image=https://static-00.iconduck.com/assets.00/google-cloud-platform-icon-512x455-f8ws1zg7.png;" vertex="1" parent="i_Fcsn6_QUgu9OQFPRpI-523">
          <mxGeometry width="12.906249999999998" height="11.458906249999998" as="geometry" />
        </mxCell>
        <mxCell id="i_Fcsn6_QUgu9OQFPRpI-522" value="&lt;div style=&quot;font-size: 9px;&quot;&gt;GCP SDK&lt;/div&gt;" style="text;strokeColor=none;align=left;fillColor=none;html=1;verticalAlign=middle;whiteSpace=wrap;rounded=0;fontStyle=1;fontSize=9;" vertex="1" parent="i_Fcsn6_QUgu9OQFPRpI-523">
          <mxGeometry x="17.626250000000002" width="53.46874999999999" height="14.12" as="geometry" />
        </mxCell>
        <mxCell id="i_Fcsn6_QUgu9OQFPRpI-529" value="" style="group" vertex="1" connectable="0" parent="i_Fcsn6_QUgu9OQFPRpI-530">
          <mxGeometry x="12.242500000000001" y="61" width="80.16625" height="99.12" as="geometry" />
        </mxCell>
        <mxCell id="i_Fcsn6_QUgu9OQFPRpI-459" value="" style="image;sketch=0;aspect=fixed;html=1;points=[];align=center;fontSize=12;image=img/lib/mscae/VM_Linux.svg;" vertex="1" parent="i_Fcsn6_QUgu9OQFPRpI-529">
          <mxGeometry width="80.16624999999999" height="73.75" as="geometry" />
        </mxCell>
        <mxCell id="i_Fcsn6_QUgu9OQFPRpI-460" value="&lt;div style=&quot;font-size: 9px;&quot;&gt;SO: Linux&lt;/div&gt;" style="text;strokeColor=none;align=center;fillColor=none;html=1;verticalAlign=middle;whiteSpace=wrap;rounded=0;fontStyle=1;fontSize=9;" vertex="1" parent="i_Fcsn6_QUgu9OQFPRpI-529">
          <mxGeometry y="85" width="79.945" height="14.12" as="geometry" />
        </mxCell>
        <mxCell id="397" style="edgeStyle=orthogonalEdgeStyle;rounded=0;html=1;dashed=0;labelBackgroundColor=none;startArrow=none;startFill=0;startSize=4;endArrow=blockThin;endFill=1;endSize=4;strokeColor=#4284F3;strokeWidth=2;fontSize=12;" parent="i_Fcsn6_QUgu9OQFPRpI-532" source="340" target="i_Fcsn6_QUgu9OQFPRpI-458" edge="1">
          <mxGeometry relative="1" as="geometry">
            <Array as="points">
              <mxPoint x="220" y="173" />
              <mxPoint x="220" y="275" />
            </Array>
          </mxGeometry>
        </mxCell>
        <mxCell id="401" style="edgeStyle=orthogonalEdgeStyle;rounded=0;html=1;dashed=0;labelBackgroundColor=none;startArrow=none;startFill=0;startSize=4;endArrow=blockThin;endFill=1;endSize=4;strokeColor=#4284F3;strokeWidth=2;fontSize=12;" parent="i_Fcsn6_QUgu9OQFPRpI-532" source="356" target="i_Fcsn6_QUgu9OQFPRpI-458" edge="1">
          <mxGeometry relative="1" as="geometry">
            <Array as="points">
              <mxPoint x="220" y="369" />
              <mxPoint x="220" y="275" />
            </Array>
            <mxPoint x="239.6875" y="365" as="targetPoint" />
          </mxGeometry>
        </mxCell>
      </root>
    </mxGraphModel>
  </diagram>
</mxfile>
